<svg xmlns="http://www.w3.org/2000/svg" viewBox="0 0 100 100" width="100" height="100">
  <!-- Monochrome icon for Safari pinned tabs -->
  <g fill="#000000">
    <!-- Document shape -->
    <path d="M20 10 L70 10 L80 20 L80 90 L20 90 Z"/>
    
    <!-- Folded corner -->
    <path d="M70 10 L80 20 L70 20 Z" fill="#ffffff"/>
    
    <!-- Text lines -->
    <rect x="28" y="25" width="35" height="2"/>
    <rect x="28" y="32" width="44" height="2"/>
    <rect x="28" y="39" width="30" height="2"/>
    <rect x="28" y="46" width="40" height="2"/>
    
    <!-- Code block -->
    <rect x="28" y="58" width="44" height="20" fill="none" stroke="#000000" stroke-width="1"/>
    <rect x="30" y="62" width="8" height="1"/>
    <rect x="40" y="62" width="12" height="1"/>
    <rect x="30" y="66" width="16" height="1"/>
    <rect x="30" y="70" width="10" height="1"/>
    <rect x="42" y="70" width="14" height="1"/>
    <rect x="30" y="74" width="24" height="1"/>
  </g>
</svg>